<svg xmlns="http://www.w3.org/2000/svg" width="800" height="450" viewBox="0 0 800 450">
  <defs>
    <linearGradient id="bg" x1="0%" y1="0%" x2="100%" y2="100%">
      <stop offset="0%" style="stop-color:#0A0A0A"/>
      <stop offset="100%" style="stop-color:#1a1a1a"/>
    </linearGradient>
    <radialGradient id="glow" cx="50%" cy="50%" r="50%">
      <stop offset="0%" style="stop-color:#FF6A3D;stop-opacity:0.15"/>
      <stop offset="100%" style="stop-color:#FF6A3D;stop-opacity:0"/>
    </radialGradient>
  </defs>
  <rect width="800" height="450" fill="url(#bg)"/>
  <rect width="800" height="450" fill="url(#glow)"/>
  <!-- Grid pattern -->
  <g opacity="0.05" stroke="#fff" stroke-width="0.5">
    <line x1="0" y1="0" x2="0" y2="450"/><line x1="40" y1="0" x2="40" y2="450"/>
    <line x1="80" y1="0" x2="80" y2="450"/><line x1="120" y1="0" x2="120" y2="450"/>
    <line x1="160" y1="0" x2="160" y2="450"/><line x1="200" y1="0" x2="200" y2="450"/>
    <line x1="240" y1="0" x2="240" y2="450"/><line x1="280" y1="0" x2="280" y2="450"/>
    <line x1="320" y1="0" x2="320" y2="450"/><line x1="360" y1="0" x2="360" y2="450"/>
    <line x1="400" y1="0" x2="400" y2="450"/><line x1="440" y1="0" x2="440" y2="450"/>
    <line x1="480" y1="0" x2="480" y2="450"/><line x1="520" y1="0" x2="520" y2="450"/>
    <line x1="560" y1="0" x2="560" y2="450"/><line x1="600" y1="0" x2="600" y2="450"/>
    <line x1="640" y1="0" x2="640" y2="450"/><line x1="680" y1="0" x2="680" y2="450"/>
    <line x1="720" y1="0" x2="720" y2="450"/><line x1="760" y1="0" x2="760" y2="450"/>
    <line x1="0" y1="0" x2="800" y2="0"/><line x1="0" y1="40" x2="800" y2="40"/>
    <line x1="0" y1="80" x2="800" y2="80"/><line x1="0" y1="120" x2="800" y2="120"/>
    <line x1="0" y1="160" x2="800" y2="160"/><line x1="0" y1="200" x2="800" y2="200"/>
    <line x1="0" y1="240" x2="800" y2="240"/><line x1="0" y1="280" x2="800" y2="280"/>
    <line x1="0" y1="320" x2="800" y2="320"/><line x1="0" y1="360" x2="800" y2="360"/>
    <line x1="0" y1="400" x2="800" y2="400"/><line x1="0" y1="440" x2="800" y2="440"/>
  </g>
  <!-- Code brackets decoration -->
  <text x="320" y="200" font-family="monospace" font-size="80" fill="#FF6A3D" opacity="0.12">&lt;/&gt;</text>
  <!-- Brand text -->
  <text x="400" y="240" text-anchor="middle" font-family="system-ui, -apple-system, sans-serif" font-size="24" font-weight="700" letter-spacing="4">
    <tspan fill="#ffffff">CUSH</tspan><tspan fill="#FF6A3D">LABS.AI</tspan>
  </text>
  <!-- Accent line -->
  <rect x="350" y="260" width="100" height="2" rx="1" fill="#FF6A3D" opacity="0.6"/>
</svg>
